<svg xmlns="http://www.w3.org/2000/svg" viewBox="0 0 190.93 59.24"><g id="图层_2" data-name="图层 2"><g id="图层_1-2" data-name="图层 1"><path d="M138.1,3.64c-.44.49-.65.72-.84.95a33,33,0,0,0-2.56,3,53.38,53.38,0,0,0-8.24,19.23,12.92,12.92,0,0,0-.14,3.57A3.75,3.75,0,0,0,130.2,34a7.16,7.16,0,0,0,4.64-1.31,19.77,19.77,0,0,0,3.84-3.39,42.24,42.24,0,0,0,8.58-18.61,11.93,11.93,0,0,0,.06-3.58c-.5-3.68-2.78-5.8-6.51-6.21-4.94-.54-9.52.78-13.87,2.9-10.26,5-17.24,12.78-19.9,24a26.65,26.65,0,0,0,1.59,17.35A22.56,22.56,0,0,0,135,57.91c.41-.1.82-.18,1.34-.29-1.45,2.16-12.2,2.13-17.58.11-10-3.75-16.28-14.23-14.06-27.68-.57.7-1,1.27-1.42,1.74a15.42,15.42,0,0,1-2.76,2.43,3,3,0,0,1-2.33.09,1.84,1.84,0,0,1-1-2.24,31.36,31.36,0,0,1,1.15-4.14c1.09-3,2.31-6,3.39-9.07a2.15,2.15,0,0,0-.15-1.81c-.33-.36-1.19-.33-1.81-.28-2.39.18-3.64,1.68-4.7,3.74-1.72,3.36-3.7,6.6-5.68,9.83a16.89,16.89,0,0,1-2.54,3,3.19,3.19,0,0,1-3.46,1.07C82.22,34,82,32.86,81.9,31.56a8.17,8.17,0,0,1-6.16,3c-2.82,0-4.5-1.52-4.58-4.36,0-1,.1-2.06.17-3.32l-1,1.44c-1.51,2.14-3.15,4.21-5.59,5.29a13.89,13.89,0,0,1-4.59,1.05,3.58,3.58,0,0,1-3.81-3.12,9.22,9.22,0,0,1,0-3.55C57.72,21.81,61,17.16,67.4,15.26a8.55,8.55,0,0,1,3.42-.15,2.39,2.39,0,0,1,2.07,3.06,8.43,8.43,0,0,1-1.55,3c-2.56,3.12-6,5.11-9.46,7-1.3.72-2.24,3.48-1.43,4.75a2.11,2.11,0,0,0,1.75.83,10.83,10.83,0,0,0,3.66-1.6,23.29,23.29,0,0,0,6.77-8.41c2.14-4.36,5.19-7.66,10.12-8.75,2.82-.62,4,0,5.29,2.59,1.39,0,1.8-.18,4.91-2.06-2.37,5.75-4.7,11.39-7,17l.43.32a8.09,8.09,0,0,0,1.49-1.29c1.4-2,2.8-4,4.05-6.08,1.52-2.56,2.89-5.22,4.36-7.9-1-.34-1.8-.84-1.29-1.89A1.81,1.81,0,0,1,96.44,15c1,.14,1.23,1,1,2,2.27-.58,4.44-1.22,6.65-1.66a3.06,3.06,0,0,1,2.18.42c.79.59.37,1.51.07,2.32-1.69,4.56-3.35,9.13-5,13.7a2.64,2.64,0,0,0-.15,1.32,5.76,5.76,0,0,0,1.06-.71,15.9,15.9,0,0,0,3.36-5.43c5-14.55,15-23.6,30.25-26.52a21.5,21.5,0,0,1,9.4.36,10.14,10.14,0,0,1,7.71,9.18,16.77,16.77,0,0,1-1.46,8.52c-3.24,7-8,12.47-15.45,15.18a19,19,0,0,1-6.08,1.07c-4.44.08-7.62-2.76-8.42-7.14a17.77,17.77,0,0,1,1.31-10.07A28.83,28.83,0,0,1,131.39,6.1,11.26,11.26,0,0,1,138.1,3.64ZM77,33.89a7.68,7.68,0,0,0,5.92-4.64c1.46-3.27,2.73-6.63,4.14-9.92a2.3,2.3,0,0,0-.1-2.66,3.06,3.06,0,0,0-3-1.17,4.58,4.58,0,0,0-3.51,2.8c-1.74,3.74-3.35,7.55-4.91,11.37a6.46,6.46,0,0,0-.27,2.71A1.46,1.46,0,0,0,77,33.89ZM61.14,28.06A27.71,27.71,0,0,0,70,19.22a4.13,4.13,0,0,0,.59-1.42,3,3,0,0,0-.26-2c-.28-.32-1.26-.22-1.86-.05A5.84,5.84,0,0,0,65,19.08c-1.36,2.79-2.55,5.66-3.81,8.5A2,2,0,0,0,61.14,28.06ZM94.93,16.3c.59.41.93.84,1.27.84s.83-.57.78-.77a1.37,1.37,0,0,0-.84-.9C95.91,15.4,95.52,15.87,94.93,16.3Z"/><path d="M32,3.18c-.22.58-.45,1.15-.65,1.73-2.52,7.22-5.45,14.24-9.85,20.55a41.73,41.73,0,0,1-9.3,10.09A18.85,18.85,0,0,1,4,39.18a8.65,8.65,0,0,1-2,.11,2,2,0,0,1-2-2.15A2.14,2.14,0,0,1,1.92,35a2.23,2.23,0,0,1,2.36,1.78c.36,1.76.36,1.78,2.1,1.18,4.78-1.65,8.39-4.9,11.5-8.71A71.79,71.79,0,0,0,30.93,3.9c.39-1.33.07-2-1.29-2.07a16,16,0,0,0-4.26.3,26,26,0,0,0-11,5A22.13,22.13,0,0,0,10,11.69c-3.8,5.46-3,11.91,1.87,16.47a4.68,4.68,0,0,1,1,1.08A13.94,13.94,0,0,1,6.93,20,12,12,0,0,1,11.46,8.41,30.57,30.57,0,0,1,31.09,1c2.3,0,4.61,0,7.09,0-.33,8.74-.65,17.33-1,26.22.44-.52.69-.8.93-1.1Q47.57,14,57,1.89A2,2,0,0,1,58.79,1c2.58,0,5.16,0,7.79.29a4.53,4.53,0,0,1-1,.26c-2.27,0-3.56,1.33-4.37,3.31-1.65,4-3.33,8-5,12Q53.61,23.19,51,29.5c-.18.44-.35.89-.5,1.34-.87,2.49-.59,3,1.92,3.66H40.19c.1-.09.17-.19.23-.2,2.49-.07,3.92-1.52,4.8-3.69Q50.49,17.77,55.74,4.93a1.6,1.6,0,0,0,0-.44c-.35.42-.61.72-.86,1L32.54,34a10.31,10.31,0,0,1-1,1l-.35-.19Q31.71,19,32.24,3.26Z"/><path d="M174.27,27.69c-1.09,1.58-2,2.92-2.91,4.19a11,11,0,0,1-1.72,1.82,2.54,2.54,0,0,1-3.48.25,2.72,2.72,0,0,1-.79-3.44c1.17-2.84,2.37-5.67,3.5-8.52a37,37,0,0,0,1.46-4.43,2.25,2.25,0,0,0-.27-1.85,2.2,2.2,0,0,0-1.87,0,10.1,10.1,0,0,0-5.58,5.48c-1.78,4.13-3.46,8.31-5.11,12.51a1.49,1.49,0,0,1-1.76,1.13c-1-.09-2.05,0-3.25,0,2.61-6.37,5.17-12.57,7.72-18.77l-.54-.27q-2.74,4.95-5.47,9.9l-.22-.07c0-.17-.06-.37,0-.5,1.5-2.77,3-5.55,4.54-8.29a3.35,3.35,0,0,1,2.5-2c1.71-.2,2.68.6,2.72,2.32a2.85,2.85,0,0,0,.29,1.34,4.77,4.77,0,0,1,1-1.27A14.68,14.68,0,0,1,169,15a3.66,3.66,0,0,1,4.65,4.46,62.71,62.71,0,0,1-2.4,7.49c-.58,1.61-1.32,3.16-2,4.75-.16.39-.24.8-.36,1.2l.29.24A6.91,6.91,0,0,0,170.51,32a73.54,73.54,0,0,0,4.72-7.45c2.21-4.46,5.16-8,10.14-9.3a8.92,8.92,0,0,1,3.3-.16,2.43,2.43,0,0,1,2.14,3.22,8.06,8.06,0,0,1-1.53,2.91c-2.54,3.08-5.92,5.07-9.36,7a4.33,4.33,0,0,0-1.6,4.74,1.45,1.45,0,0,0,1.84.94,9.84,9.84,0,0,0,3.63-1.67c2-1.87,3.69-4,5.5-6.11.27-.3.48-.66.78-.94-1.09,3.76-6.07,8.61-9.5,9.38-4.55,1-7.09-1.32-6.42-5.93C174.17,28.39,174.2,28.2,174.27,27.69Zm4.79.51c3.64-2.61,6.85-5.37,9-9.18a3.8,3.8,0,0,0,.55-1.44c0-.6.05-1.44-.29-1.75a2.21,2.21,0,0,0-1.77-.11A5.87,5.87,0,0,0,183,19.07c-1.37,2.79-2.56,5.66-3.82,8.5A3,3,0,0,0,179.06,28.2Z"/></g></g></svg>